<svg fill="none" height="161" viewBox="0 0 146 161" width="146" xmlns="http://www.w3.org/2000/svg"><path clip-rule="evenodd" d="m83.4448 38.675c-1.741-.3436-3.4636-.9333-5.1209-1.7843-9.5451-4.9011-13.3097-16.6121-8.4085-26.1571 4.9011-9.54502 16.612-13.30964 26.157-8.4085 7.8316 4.02118 11.7716 12.6264 10.2266 20.8585.153.0978.31.1987.473.3028l.008.0056c7.246 4.646 24 15.3886 20.331 22.5344-3.655 7.1174-8.916 8.1503-16.503 9.6398-9.311 1.828-22.1253 4.3437-39.7738 19.6353-1.0483.9083-2.0837 1.799-3.1051 2.673-1.6804-1.3468-3.5203-2.5458-5.5105-3.5677-11.5906-5.9514-25.0906-4.2636-34.7556 3.217 9.3778-5.8321 21.4953-6.7365 32.0342-1.3251 15.9656 8.198 22.2625 27.7863 14.0646 43.7523-6.5962 12.846-20.5666 19.432-34.0907 17.246 20.7061 22.254 89.1569 20.392 99.1209-50.013.489-3.4544 6.646-3.2234 6.663.3988-1.125 37.2332-40.262 93.5612-106.1587 64.8102-5.3132-2.574-9.6869-5.327-13.2237-8.262-25.188005-21.382-33.32567-58.0114-17.5835-88.6695 11.3932-22.1884 32.6133-36.0353 55.6198-38.956.0388 8.0668 4.4615 15.8343 12.1336 19.7738 2.3851 1.2247 4.8879 1.9785 7.4023 2.2957zm21.8482-.7149c1.758.9027 3.914.2093 4.817-1.5486s.209-3.9148-1.548-4.8174c-1.758-.9027-3.915-.2093-4.818 1.5486s-.209 3.9148 1.549 4.8174z" fill="#7a7a7a" fill-rule="evenodd"/></svg>